PathFileType	4	(x/y/z)	A01_PREF_T0018.trc
DataRate	CameraRate	NumFrames	NumMarkers	Units	OrigDataRate	OrigDataStartFrame	OrigNumFrames
240	240	5	48	mm	240	143	285
Frame#	Time	TOP_HEAD			R_AC			L_AC			R_ASIS			L_ASIS			R_PSIS			L_PSIS			SACRAL			L_IC			R_IC			L_GT			R_GT			R_LAT_KNEE			R_MED_KNEE			L_MED_KNEE			L_LAT_KNEE			R_TOE			L_TOE			R_1ST_MET			L_1ST_MET			L_5TH_MET			R_5TH_MET			R_LAT_ANK			R_MED_ANK			L_MED_ANK			L_LAT_ANK			L_HEEL_SUP			R_HEEL_SUP			L_HEEL_LAT			R_HEEL_LAT			L_HEEL_MED			R_HEEL_MED			R_SHANK_PROX_POST			R_SHANK_PROX_ANT			R_SHANK_DIST_ANT			R_SHANK_DIST_POST			R_THIGH_PROX_POST			R_THIGH_PROX_ANT			R_THIGH_DIST_ANT			R_THIGH_DIST_POST			L_SHANK_PROX_ANT			L_SHANK_PROX_POST			L_SHANK_DIST_POST			L_SHANK_DIST_ANT			L_THIGH_PROX_ANT			L_THIGH_PROX_POST			L_THIGH_DIST_POST			L_THIGH_DIST_ANT			
		X1	Y1	Z1	X2	Y2	Z2	X3	Y3	Z3	X4	Y4	Z4	X5	Y5	Z5	X6	Y6	Z6	X7	Y7	Z7	X8	Y8	Z8	X9	Y9	Z9	X10	Y10	Z10	X11	Y11	Z11	X12	Y12	Z12	X13	Y13	Z13	X14	Y14	Z14	X15	Y15	Z15	X16	Y16	Z16	X17	Y17	Z17	X18	Y18	Z18	X19	Y19	Z19	X20	Y20	Z20	X21	Y21	Z21	X22	Y22	Z22	X23	Y23	Z23	X24	Y24	Z24	X25	Y25	Z25	X26	Y26	Z26	X27	Y27	Z27	X28	Y28	Z28	X29	Y29	Z29	X30	Y30	Z30	X31	Y31	Z31	X32	Y32	Z32	X33	Y33	Z33	X34	Y34	Z34	X35	Y35	Z35	X36	Y36	Z36	X37	Y37	Z37	X38	Y38	Z38	X39	Y39	Z39	X40	Y40	Z40	X41	Y41	Z41	X42	Y42	Z42	X43	Y43	Z43	X44	Y44	Z44	X45	Y45	Z45	X46	Y46	Z46	X47	Y47	Z47	X48	Y48	Z48	

143	0.59375	243.55	1719.9	322.74	18.033	1545.4	558.38	-5.178	1539.7	108.02	13.406	1064.4	542.88	-16.861	999.49	191.46	-210.33	1063.3	442.41	-212.35	1075.5	310.88	-229.34	1041.3	375.72	-40.633	1127.8	152.71	-25.748	1170.8	552.82	-98.031	932.94	158.12	-33.387	952.1	591.93	85.447	561.18	529.3	106.68	566.19	394.69	-173.09	533.78	378.68	-194.28	550.52	222.86	479.21	221.43	466.04	-216.62	71.147	267.38	425.96	157.63	415.55	-297.79	56.826	325.73	-333.34	52.557	200.61	400.25	134.15	545.16	266.9	124.48	513.78	276.31	137.49	412.15	-392.57	153.75	318.36	-427.34	158.8	251.16	-530.31	124.63	292.75	206.89	42.758	450.73	-527.93	94.348	261.09	224.84	27.117	487.15	-514.63	91.228	324.09	233.57	25.259	428.24	70.521	358.96	531.34	136.41	380.89	555.6	172.22	314.95	541.59	122.3	293.48	526.03	-31.427	803.6	574.33	29.287	843.06	577.85	59.787	758.05	567.72	1.7528	720.98	561.08	-186.47	456.11	233.48	-236.98	479.09	224.46	-268.33	424.76	233.12	-216.41	409.13	240.14	-70.913	781.6	193.85	-137.47	804.71	180.31	-144.39	729.46	191.29	-84.382	709.28	204.11
144	0.59793	249.59	1718.9	323.51	24.521	1543.9	559.36	0.85394	1538.7	109.12	20.338	1063.2	543.04	-11.107	998.26	191.64	-203.87	1062	443.4	-206.23	1074.4	311.89	-223.01	1040.1	376.73	-34.969	1126.8	153.21	-18.798	1169.3	553.43	-92.566	931.93	158.47	-26.222	950.89	592.2	93.018	560.36	529.27	113.59	565.34	394.75	-168.54	532.79	378.5	-189.68	549.67	222.74	485.57	218.61	463.58	-216.22	70.795	267.32	431.54	155.11	413.68	-297.37	56.964	325.7	-333.02	52.887	200.59	406.5	132.23	543.48	273.17	123.46	513.1	281.94	136.13	411.32	-391.24	154.6	318.29	-426.11	159.97	251.19	-529.38	126.51	292.8	211.84	42.672	450.61	-527.26	96.212	261.15	229.9	26.982	486.96	-513.95	93.021	324.15	238.09	24.727	428	77.711	358.27	531.65	143.86	380.02	555.35	179.35	313.99	541.18	129.3	292.64	526.02	-24.017	802.6	574.63	36.402	842.2	577.98	67.229	757.27	567.7	9.2704	720.06	561.3	-182.69	455.2	233.36	-233.01	478.61	224.36	-264.82	424.55	233.05	-213.04	408.48	240.03	-65.839	780.47	193.96	-132.35	803.8	180.53	-139.57	728.53	191.47	-79.514	708.18	204.12
145	0.60211	255.65	1717.9	324.28	31.026	1542.3	560.37	6.8955	1537.7	110.23	27.266	1062.1	543.21	-5.2846	997.03	191.85	-197.41	1060.8	444.37	-200.07	1073.2	312.86	-216.65	1038.9	377.71	-29.226	1125.8	153.72	-11.844	1167.7	554.05	-87.015	930.91	158.85	-19.066	949.74	592.51	100.65	559.62	529.25	120.61	564.57	394.84	-163.81	531.77	378.32	-184.9	548.81	222.63	491.69	215.25	461.11	-215.79	70.421	267.25	436.74	152.16	411.84	-296.92	57.118	325.67	-332.67	53.252	200.57	412.33	130.01	541.83	279.03	122.37	512.45	287.19	134.69	410.51	-389.82	155.53	318.22	-424.79	161.22	251.23	-528.37	128.54	292.87	216.23	42.693	450.51	-526.53	98.217	261.23	234.36	26.933	486.8	-513.19	94.951	324.22	242	24.242	427.79	84.814	357.71	531.97	151.25	379.21	555.09	186.34	313.05	540.75	136.12	291.87	526.01	-16.557	801.66	574.94	43.532	841.42	578.13	74.721	756.58	567.69	16.853	719.22	561.53	-178.76	454.28	233.24	-228.88	478.14	224.26	-261.16	424.36	232.98	-209.52	407.84	239.92	-60.658	779.35	194.09	-127.12	802.88	180.77	-134.63	727.58	191.68	-74.522	707.08	204.16
146	0.60629	261.75	1716.9	325.05	37.549	1540.8	561.42	12.944	1536.7	111.35	34.183	1061	543.41	0.60581	995.81	192.09	-190.95	1059.6	445.3	-193.88	1072	313.79	-210.25	1037.7	378.66	-23.4	1124.8	154.25	-4.8924	1166.2	554.71	-81.377	929.86	159.24	-11.927	948.66	592.85	108.33	558.97	529.23	127.73	563.87	394.96	-158.88	530.73	378.14	-179.94	547.93	222.52	497.58	211.39	458.69	-215.34	70.025	267.17	441.6	148.83	410.04	-296.43	57.291	325.65	-332.3	53.657	200.56	417.75	127.5	540.22	284.51	121.24	511.82	292.08	133.18	409.72	-388.32	156.53	318.15	-423.37	162.57	251.28	-527.26	130.71	292.96	220.1	42.827	450.45	-525.73	100.38	261.33	238.25	26.973	486.66	-512.36	97.03	324.31	245.33	23.821	427.62	91.83	357.28	532.31	158.57	378.47	554.82	193.19	312.15	540.32	142.79	291.19	526.02	-9.0603	800.79	575.25	50.668	840.71	578.29	82.247	755.99	567.69	24.483	718.45	561.75	-174.67	453.35	233.12	-224.57	477.67	224.16	-257.34	424.19	232.92	-205.85	407.2	239.82	-55.365	778.23	194.25	-121.79	801.95	181.03	-129.56	726.6	191.91	-69.399	705.99	204.22
147	0.61048	267.87	1715.9	325.81	44.086	1539.2	562.49	18.997	1535.7	112.48	41.081	1060	543.64	6.5648	994.6	192.36	-184.49	1058.5	446.2	-187.66	1070.8	314.67	-203.84	1036.5	379.58	-17.489	1123.8	154.8	2.05	1164.7	555.39	-75.649	928.81	159.66	-4.8136	947.68	593.22	116.05	558.43	529.22	134.91	563.27	395.11	-153.73	529.67	377.97	-174.77	547.03	222.41	503.25	207.08	456.33	-214.87	69.604	267.09	446.13	145.18	408.31	-295.9	57.485	325.64	-331.9	54.106	200.55	422.76	124.73	538.67	289.62	120.09	511.23	296.63	131.62	408.97	-386.72	157.62	318.1	-421.85	164.02	251.34	-526.04	133.05	293.07	223.48	43.074	450.41	-524.84	102.7	261.45	241.61	27.103	486.56	-511.44	99.271	324.43	248.13	23.476	427.49	98.762	356.98	532.66	165.81	377.81	554.56	199.91	311.3	539.89	149.3	290.61	526.05	-1.5414	800.01	575.56	57.804	840.09	578.46	89.788	755.48	567.7	32.14	717.77	561.99	-170.39	452.41	233.01	-220.07	477.21	224.08	-253.35	424.04	232.86	-202.02	406.58	239.72	-49.955	777.12	194.43	-116.35	801	181.32	-124.37	725.62	192.15	-64.136	704.89	204.3
